<?xml version="1.0" encoding="UTF-8" standalone="no"?>
<svg width="1307px" height="1613px" viewBox="0 0 1307 1613" version="1.1" xmlns="http://www.w3.org/2000/svg" xmlns:xlink="http://www.w3.org/1999/xlink">
    <!-- Generator: Sketch 40 (33762) - http://www.bohemiancoding.com/sketch -->
    <title>Fill 24</title>
    <desc>Created with Sketch.</desc>
    <defs></defs>
    <g id="Welcome" stroke="none" stroke-width="1" fill="none" fill-rule="evenodd">
        <g id="Desktop-HD" transform="translate(0.000000, -177.000000)" fill="#F3EEEE">
            <path d="M92.0311993,793.52443 C122.316859,870.697549 166.266101,909.264551 223.839996,909.264551 C245.795153,909.264551 264.558248,901.246057 280.090354,885.209068 C295.62246,869.172079 303.407976,849.693005 303.407976,826.771845 C303.407976,780.929526 275.341189,758.008367 219.324397,758.008367 C185.223834,758.008367 142.792768,769.860093 92.0311993,793.52443 M848.549852,955.10687 C896.43078,987.180847 929.519225,1020.62384 947.737334,1055.35761 C965.994371,1090.13049 975.142353,1136.16838 975.142353,1193.47128 C975.142353,1352.35481 903.67131,1491.40724 760.729224,1610.58945 C617.748211,1729.77165 451.254938,1789.3432 261.210476,1789.3432 C84.0121172,1789.3432 -57.9567789,1743.50088 -164.774067,1651.81624 C-271.591356,1560.17072 -325,1437.93757 -325,1285.11681 C-325,1175.12653 -299.346723,1079.4522 -248.040168,998.054708 C-196.694686,916.696326 -112.143975,837.450133 5.68981967,760.277014 C-5.67703463,709.97563 -11.3604618,666.128156 -11.3604618,628.773707 C-11.3604618,505.249779 31.9659384,399.092736 118.657666,310.263465 C205.310467,221.434193 308.702128,177 428.83265,177 C503.340044,177 563.599943,194.562458 609.612346,229.570031 C655.62475,264.616719 678.592024,311.045757 678.592024,368.935375 C678.592024,413.056651 663.877397,450.958705 634.448144,482.563307 C604.979964,514.167909 569.984066,529.97021 529.460452,529.97021 C499.641923,529.97021 484.732659,518.900777 484.732659,496.722795 C484.732659,489.095446 489.676462,476.500543 499.564068,458.89897 C511.709474,436.760103 517.821105,417.672175 517.821105,401.596071 C517.821105,374.098503 504.546799,351.177343 478.076042,332.871707 C451.605286,314.526957 418.711478,305.374139 379.394619,305.374139 C299.203797,305.374139 227.499189,340.890202 164.358649,411.922327 C101.179181,482.993568 69.6089114,564.35195 69.6089114,655.997473 C69.6089114,672.073576 70.6210285,694.955621 72.723118,724.760951 C121.421525,701.096614 174.674459,689.244889 232.520847,689.244889 C290.367236,689.244889 336.768915,703.01323 371.764813,730.510799 C406.76071,758.008367 424.278122,795.049899 424.278122,841.635396 C424.278122,886.734537 408.473524,923.189351 376.942181,951.078065 C345.371911,978.96678 303.719397,992.930694 252.023566,992.930694 C156.923481,992.930694 82.3771587,938.678735 28.3846007,830.174816 C-88.5927869,920.216641 -147.100945,1037.71692 -147.100945,1182.67565 C-147.100945,1320.75021 -97.9743345,1439.97153 0.278885603,1540.3005 C98.4931781,1640.62947 215.898769,1690.77439 352.417804,1690.77439 C485.939414,1690.77439 602.955729,1645.59702 703.466749,1555.24228 C803.977769,1464.84842 854.233279,1359.43456 854.233279,1238.96157 C854.233279,1184.00555 835.236619,1136.16838 797.20437,1095.37185 C759.172121,1054.57531 714.716821,1034.15749 663.799542,1034.15749 C615.140063,1034.15749 573.487549,1051.25057 538.880927,1085.39762 C504.274306,1119.50556 486.990459,1160.77147 486.990459,1209.07801 C486.990459,1239.00068 495.554527,1264.30784 512.682664,1284.99946 C529.771873,1305.7302 550.870623,1316.05646 575.978914,1316.05646 C598.011926,1316.05646 615.879687,1303.8527 629.582196,1279.40607 C638.107337,1265.63773 647.021754,1258.79268 656.364374,1258.79268 C675.75031,1258.79268 684.703654,1270.17503 683.185478,1292.8615 C681.628375,1320.12438 669.63868,1343.04554 647.255319,1361.58586 C624.833031,1380.12619 597.622651,1389.39635 565.702032,1389.39635 C515.524377,1389.39635 472.197977,1366.86633 435.683904,1321.80631 C399.208759,1276.74628 380.951722,1222.88547 380.951722,1160.22387 C380.951722,1032.63202 477.647839,927.609301 671.040073,845.077481 L834.341284,775.062335 C1086.31953,667.18425 1212.32812,542.760687 1212.32812,401.908988 C1212.32812,356.770732 1197.57456,318.321074 1168.06746,286.520899 C1138.52142,254.798953 1102.66912,238.879308 1060.51054,238.879308 C1029.83561,238.879308 1002.78094,251.083065 979.424387,275.49058 C956.028909,299.858979 944.350634,327.552121 944.350634,358.491775 C944.350634,387.123667 961.829119,404.959927 996.786089,411.922327 C1038.59431,419.510561 1059.53735,434.256768 1059.53735,456.278291 C1059.53735,481.272525 1049.10476,504.037226 1028.31743,524.494165 C1007.49117,544.951105 984.640683,555.160017 959.688102,555.160017 C922.590115,555.160017 892.888369,541.43079 870.582864,513.933222 C848.277359,486.396539 837.14407,450.48933 837.14407,406.211595 C837.14407,345.857757 859.955634,292.935694 905.539834,247.484521 C951.162962,202.033348 1004.37697,179.307762 1065.22078,179.307762 C1135.91327,179.307762 1193.91537,204.34111 1239.14922,254.368692 C1284.34415,304.396274 1307,367.996624 1307,445.169743 C1307,546.007199 1268.22813,639.217307 1190.68438,724.760951 C1144.2827,776.705149 1055.68352,838.975603 924.92577,911.572313 C908.225837,921.468308 882.72827,936.018942 848.549852,955.10687" id="Fill-24"></path>
        </g>
    </g>
</svg>