<?xml version="1.0" encoding="UTF-8" standalone="no"?>
<svg width="750px" height="741px" viewBox="0 0 750 741" version="1.1" xmlns="http://www.w3.org/2000/svg" xmlns:xlink="http://www.w3.org/1999/xlink">
    <!-- Generator: Sketch 40 (33762) - http://www.bohemiancoding.com/sketch -->
    <title>Fill 24</title>
    <desc>Created with Sketch.</desc>
    <defs></defs>
    <g id="Page-1" stroke="none" stroke-width="1" fill="none" fill-rule="evenodd">
        <path d="M191.650367,283.329242 C205.56841,318.794829 225.765671,336.518636 252.224263,336.518636 C262.313949,336.518636 270.936695,332.833666 278.074611,325.463726 C285.212527,318.093786 288.79043,309.142006 288.79043,298.608385 C288.79043,277.541143 275.89209,267.007522 250.149079,267.007522 C234.477865,267.007522 214.978294,272.454087 191.650367,283.329242 M539.315189,357.585878 C561.319292,372.325757 576.525379,387.694778 584.897672,403.656988 C593.287854,419.637175 597.49189,440.794294 597.49189,467.128347 C597.49189,540.144676 564.646742,604.047446 498.956445,658.81868 C433.248259,713.589915 356.734806,740.966544 269.398197,740.966544 C187.965127,740.966544 122.722069,719.899302 73.6332411,677.764818 C24.5444137,635.648309 0,579.474988 0,509.244856 C0,458.697855 11.78919,414.729873 35.3675699,377.322936 C58.9638393,339.933973 97.8198645,303.515686 151.971424,268.050098 C146.747686,244.933654 144.135817,224.78316 144.135817,207.616593 C144.135817,150.850082 164.046847,102.064677 203.886795,61.2424011 C243.708854,20.4201255 291.223404,-5.68434189e-14 346.430446,-5.68434189e-14 C380.670976,-5.68434189e-14 408.363944,8.07098271 429.50935,24.1590217 C450.654756,40.2650362 461.20957,61.6019104 461.20957,88.205595 C461.20957,108.481917 454.447333,125.90014 440.92286,140.424314 C427.380498,154.948488 411.297825,162.210575 392.67484,162.210575 C378.971472,162.210575 372.119788,157.123519 372.119788,146.931431 C372.119788,143.426216 374.391757,137.638117 378.935693,129.549159 C384.517222,119.375047 387.325875,110.603021 387.325875,103.215106 C387.325875,90.5783561 381.225551,80.044735 369.060681,71.6322185 C356.895811,63.2017265 341.779172,58.9954683 323.710762,58.9954683 C286.858363,58.9954683 253.905877,75.3171883 224.889085,107.960628 C195.854403,140.622044 181.346007,178.011006 181.346007,220.127515 C181.346007,227.51543 181.811134,238.031076 182.777168,251.728378 C205.156951,240.853224 229.629806,235.406658 256.213625,235.406658 C282.797443,235.406658 304.121744,241.734021 320.204418,254.370771 C336.287091,267.007522 344.337372,284.030285 344.337372,305.439061 C344.337372,326.164769 337.07423,342.9179 322.583723,355.734405 C308.075327,368.55091 288.933546,374.96815 265.176271,374.96815 C221.472188,374.96815 187.213768,350.036183 162.401011,300.17225 C108.643021,341.551765 81.7550806,395.550055 81.7550806,462.167119 C81.7550806,525.620502 104.331648,580.409712 149.484782,626.516774 C194.620027,672.623835 248.574802,695.668378 311.313329,695.668378 C372.674363,695.668378 426.450243,674.906719 472.640969,633.383401 C518.831695,591.842106 541.927058,543.398235 541.927058,488.03381 C541.927058,462.778285 533.196975,440.794294 515.71892,422.045887 C498.240864,403.297479 477.811039,393.914288 454.411554,393.914288 C432.049661,393.914288 412.907881,401.769565 397.004103,417.462144 C381.100324,433.136747 373.15738,452.10086 373.15738,474.300556 C373.15738,488.051785 377.093073,499.68191 384.964459,509.190929 C392.817956,518.717925 402.514073,523.463447 414.05281,523.463447 C424.178275,523.463447 432.389562,517.855102 438.686671,506.620438 C442.604475,500.293075 446.701174,497.147369 450.994657,497.147369 C459.903635,497.147369 464.018223,502.378229 463.320532,512.803997 C462.604952,525.332895 457.094981,535.866516 446.808511,544.386885 C436.50415,552.907254 423.99938,557.167439 409.329978,557.167439 C386.270394,557.167439 366.359365,546.813573 349.579,526.10584 C332.816525,505.398107 324.426343,480.645895 324.426343,451.849204 C324.426343,393.213245 368.863897,344.949127 457.739004,307.020901 L532.785517,274.844823 C648.584343,225.268497 706.492701,168.088551 706.492701,103.35891 C706.492701,82.6152262 699.712575,64.9453464 686.152323,50.3312953 C672.574182,35.7531951 656.097939,28.4371818 636.723595,28.4371818 C622.626658,28.4371818 610.193445,34.0455262 599.459737,45.2622149 C588.708139,56.4609281 583.341284,69.1875556 583.341284,83.4061465 C583.341284,96.5641851 591.373676,104.760996 607.43846,107.960628 C626.651798,111.447868 636.276357,118.224618 636.276357,128.344803 C636.276357,139.831124 631.481967,150.292843 621.928967,159.69401 C612.358077,169.095177 601.856932,173.786773 590.389753,173.786773 C573.341046,173.786773 559.691346,167.477385 549.440655,154.840635 C539.189963,142.185909 534.073562,125.684435 534.073562,105.336211 C534.073562,77.6000721 544.556817,53.2792712 565.505438,32.3917836 C586.471949,11.5042961 610.926915,1.06055229 638.888226,1.06055229 C671.375584,1.06055229 698.030961,12.5648484 718.818576,35.555465 C739.588303,58.5460817 750,87.7741839 750,123.239772 C750,169.580514 732.182044,212.416042 696.546131,251.728378 C675.22183,275.599793 634.505295,304.216729 574.414417,337.579188 C566.739815,342.12698 555.022183,348.813852 539.315189,357.585878" id="Fill-24" fill="#FFFFFF"></path>
    </g>
</svg>