<?xml version="1.0" encoding="UTF-8" standalone="no"?>
<svg width="250px" height="41px" viewBox="0 0 250 41" version="1.1" xmlns="http://www.w3.org/2000/svg" xmlns:xlink="http://www.w3.org/1999/xlink">
    <!-- Generator: Sketch 39.1 (31720) - http://www.bohemiancoding.com/sketch -->
    <title>Logo</title>
    <desc>Created with Sketch.</desc>
    <defs></defs>
    <g id="Welcome" stroke="none" stroke-width="1" fill="none" fill-rule="evenodd">
        <g id="Desktop-HD" transform="translate(-48.000000, -26.000000)">
            <g id="Logo" transform="translate(48.000000, 26.000000)">
                <path d="M12.8524709,14.9495034 L12.7931048,12.3844953 C12.7931048,12.0862385 12.7634217,11.8476331 12.4072249,11.7581561 C11.991662,11.6388534 11.5167329,11.6090277 10.6856071,11.6090277 C8.6374755,11.6090277 6.79712538,12.503798 6.79712538,14.3529899 C6.79712538,16.0232277 8.51874323,16.5899156 10.4481426,17.2759061 C12.882154,18.1408507 15.6723622,19.2742263 15.6723622,23.2112155 C15.6723622,28.3104118 11.6354652,30.5175118 6.64871005,30.5175118 C3.91786794,30.5175118 1.03959993,29.8315213 -0.000296830664,29.2946591 L0.801145963,23.4796466 L4.0366002,23.4796466 L4.24438167,26.2822659 C4.27406473,26.6709939 4.36311393,26.8191281 4.77867686,26.939425 C5.37233819,27.0875591 6.08473179,27.1770362 7.06427298,27.1770362 C9.61701669,27.1770362 11.1308531,26.1629632 11.1308531,24.0761601 C11.1308531,22.3452767 9.61701669,21.7199317 7.8360327,21.0935926 C5.31297206,20.1988223 2.25660565,19.304052 2.25660565,15.2775858 C2.25660565,10.4756521 6.20346405,8.17907505 11.0121208,8.17907505 C13.5648645,8.17907505 15.6426792,8.86506559 16.889368,9.40192775 L16.0879252,15.2179345 L12.8524709,14.9495034 Z" id="Fill-1" fill="#FFFFFF"></path>
                <path d="M34.4911295,17.932071 C34.4911295,17.3355574 34.4911295,16.7688696 34.4317634,16.2618331 C34.0755666,13.1897885 32.6210963,11.8476331 30.0683526,11.8476331 C25.4387837,11.8476331 23.2412473,16.4706129 23.2412473,20.9146385 C23.2412473,21.421675 23.2719198,22.136497 23.331286,22.525225 C23.7161764,25.4769727 25.1716361,26.8489537 27.8421226,26.8489537 C31.3447245,26.8489537 34.1349327,24.4042425 34.4911295,17.932071 M18.4632631,21.6304547 C18.4632631,14.1143845 22.5298432,8.17907505 30.6026478,8.17907505 C36.7470426,8.17907505 39.2404201,11.9669358 39.2404201,16.8881723 C39.2404201,25.3884898 34.7582771,30.5175118 27.1594121,30.5175118 C20.9566407,30.5175118 18.4632631,26.9682564 18.4632631,21.6304547" id="Fill-4" fill="#FFFFFF"></path>
                <path d="M54.9721485,30.159902 L47.8482126,14.5014223 L46.0979011,27.1475088 C46.038535,27.6247196 46.0672286,27.6843709 46.4827915,27.7440223 L48.4131803,27.9826277 L48.1460327,30.159902 L40.0425555,30.159902 L40.3097031,27.9826277 L42.1797363,27.7738479 C42.5952993,27.7141966 42.6843485,27.6247196 42.7437146,27.1773344 L44.9105784,11.5795003 C44.9699446,11.1321152 44.9392721,11.0128125 44.5237091,10.9829868 L42.7437146,10.7742071 L42.9811791,8.56710709 L50.1931748,8.56710709 L57.1983785,24.2544182 L58.9793625,11.609326 C59.0387286,11.1619409 58.9793625,11.0426382 58.5934826,11.0128125 L56.7828156,10.8040328 L57.0499632,8.56710709 L65.1237572,8.56710709 L64.8269266,10.8040328 L62.8381611,11.0426382 C62.4225982,11.1022895 62.3929151,11.1619409 62.333549,11.609326 L59.7214392,30.159902 L54.9721485,30.159902 Z" id="Fill-6" fill="#FFFFFF"></path>
                <path d="M73.138482,26.9685547 C78.511117,26.9685547 81.182593,22.7034831 81.182593,17.4551584 C81.182593,13.3988665 79.2531937,11.7872859 75.364712,11.7872859 L73.5540449,11.7872859 L71.4762303,26.9685547 L73.138482,26.9685547 Z M64.2335621,30.159902 L64.5610652,27.9229763 L66.430109,27.7141966 C66.8159889,27.6843709 66.9050381,27.5650682 66.9644042,27.1475088 L69.131268,11.5795003 C69.1906342,11.1619409 69.131268,11.0426382 68.7453882,10.9829868 L66.9050381,10.7742071 L67.2018687,8.56710709 L76.6410838,8.56710709 C83.0229431,8.56710709 85.7824789,11.9374084 85.7824789,17.3358557 C85.7824789,24.642152 81.8356205,30.159902 73.1978481,30.159902 L64.2335621,30.159902 Z" id="Fill-8" fill="#FFFFFF"></path>
                <path d="M86.4668714,30.159902 L86.7637021,27.9826277 L88.6337353,27.7738479 C89.0492982,27.7141966 89.1383474,27.6247196 89.1977135,27.1773344 L91.3645774,11.5795003 C91.4239435,11.1321152 91.3645774,11.0128125 90.9786975,10.9829868 L89.1383474,10.7742071 L89.4351781,8.56710709 L104.899066,8.56710709 L104.06794,14.5918935 L100.951218,14.441771 L100.862169,12.1760138 C100.833476,11.8777571 100.713754,11.78828 100.38724,11.78828 L95.7863649,11.78828 L94.9849221,17.6639381 L101.812027,17.6639381 L101.337098,20.9735939 L94.509993,20.9735939 L93.7095396,26.9685547 L98.962453,26.9685547 C99.2889667,26.9685547 99.3780159,26.938729 99.4680545,26.6404723 L100.298191,24.0158128 L103.414913,24.0158128 L102.583787,30.159902 L86.4668714,30.159902 Z" id="Fill-10" fill="#FFFFFF"></path>
                <path d="M114.961527,18.2301289 C117.306489,18.2301289 119.413987,17.484487 119.413987,14.4124424 C119.413987,12.5334248 118.315713,11.8176086 115.941068,11.8176086 L114.486598,11.8176086 L113.625789,18.2301289 L114.961527,18.2301289 Z M117.90015,30.1603991 L117.722052,30.0112707 L116.089483,22.6741545 C115.911385,21.8092099 115.614554,21.3319991 114.575647,21.3319991 L113.180543,21.3319991 L112.3791,27.0883545 C112.319734,27.5655653 112.349417,27.6252167 112.735297,27.684868 L114.486598,27.9234734 L114.21945,30.1603991 L105.22647,30.1603991 L105.493618,27.9234734 L107.362662,27.7146937 C107.778225,27.684868 107.837591,27.5943968 107.896957,27.117186 L110.093504,11.5790032 C110.15287,11.1614438 110.093504,11.0431353 109.707624,10.9824897 L107.92763,10.77371 L108.164105,8.56661 L117.90015,8.56661 C122.471343,8.56661 124.103911,11.0431353 124.103911,13.8457546 C124.103911,17.2160559 122.204195,19.1248991 119.413987,20.2582748 C120.21543,20.6758343 120.51226,21.3916505 120.779408,22.6443288 L121.758949,27.0575346 C121.847998,27.505914 122.05578,27.6252167 122.501026,27.684868 L124.311693,27.9234734 L124.014862,30.1603991 L117.90015,30.1603991 Z" id="Fill-12" fill="#FFFFFF"></path>
                <path d="M185.577641,18.2301289 C187.922603,18.2301289 190.030101,17.484487 190.030101,14.4124424 C190.030101,12.5334248 188.931827,11.8176086 186.557182,11.8176086 L185.102712,11.8176086 L184.241903,18.2301289 L185.577641,18.2301289 Z M188.516264,30.1603991 L188.338166,30.0112707 L186.705597,22.6741545 C186.527499,21.8092099 186.230668,21.3319991 185.191761,21.3319991 L183.796657,21.3319991 L182.995214,27.0883545 C182.935848,27.5655653 182.965531,27.6252167 183.351411,27.684868 L185.102712,27.9234734 L184.835564,30.1603991 L175.842584,30.1603991 L176.109732,27.9234734 L177.978776,27.7146937 C178.394339,27.684868 178.453705,27.5943968 178.513071,27.117186 L180.709618,11.5790032 C180.768984,11.1614438 180.709618,11.0431353 180.323738,10.9824897 L178.543743,10.77371 L178.780219,8.56661 L188.516264,8.56661 C193.087457,8.56661 194.720025,11.0431353 194.720025,13.8457546 C194.720025,17.2160559 192.820309,19.1248991 190.030101,20.2582748 C190.831544,20.6758343 191.128374,21.3916505 191.395522,22.6443288 L192.375063,27.0575346 C192.464112,27.505914 192.671894,27.6252167 193.11714,27.684868 L194.927807,27.9234734 L194.630976,30.1603991 L188.516264,30.1603991 Z" id="Fill-14" fill="#FFFFFF"></path>
                <path d="M195.847883,30.159902 L196.085347,27.9826277 L198.252211,27.7738479 C198.667774,27.7440223 198.72714,27.6247196 198.786506,27.1773344 L200.982064,11.609326 C201.042419,11.1619409 200.982064,11.0426382 200.56749,11.0128125 L198.489676,10.8040328 L198.786506,8.56710709 L208.580929,8.56710709 L208.255405,10.8040328 L205.998502,11.0426382 C205.554246,11.1022895 205.523573,11.1619409 205.465196,11.609326 L203.298332,27.1475088 C203.238966,27.6247196 203.238966,27.6843709 203.654529,27.7440223 L205.880759,27.9826277 L205.613612,30.159902 L195.847883,30.159902 Z" id="Fill-16" fill="#FFFFFF"></path>
                <path d="M221.04752,14.9495034 L220.988154,12.3844953 C220.988154,12.0862385 220.958471,11.8476331 220.602274,11.7581561 C220.186711,11.6388534 219.711782,11.6090277 218.880656,11.6090277 C216.832525,11.6090277 214.992174,12.503798 214.992174,14.3529899 C214.992174,16.0232277 216.713792,16.5899156 218.643192,17.2759061 C221.077203,18.1408507 223.867411,19.2742263 223.867411,23.2112155 C223.867411,28.3104118 219.830514,30.5175118 214.843759,30.5175118 C212.112917,30.5175118 209.234649,29.8315213 208.194752,29.2946591 L208.996195,23.4796466 L212.231649,23.4796466 L212.439431,26.2822659 C212.469114,26.6709939 212.558163,26.8191281 212.973726,26.939425 C213.567387,27.0875591 214.279781,27.1770362 215.259322,27.1770362 C217.812066,27.1770362 219.325902,26.1629632 219.325902,24.0761601 C219.325902,22.3452767 217.812066,21.7199317 216.031082,21.0935926 C213.508021,20.1988223 210.451655,19.304052 210.451655,15.2775858 C210.451655,10.4756521 214.398513,8.17907505 219.20717,8.17907505 C221.759914,8.17907505 223.837728,8.86506559 225.084417,9.40192775 L224.282974,15.2179345 L221.04752,14.9495034 Z" id="Fill-18" fill="#FFFFFF"></path>
                <path d="M225.322673,30.159902 L225.619504,27.9826277 L227.489537,27.7738479 C227.9051,27.7141966 227.994149,27.6247196 228.053515,27.1773344 L230.220379,11.5795003 C230.279745,11.1321152 230.220379,11.0128125 229.834499,10.9829868 L227.994149,10.7742071 L228.29098,8.56710709 L243.754868,8.56710709 L242.923742,14.5918935 L239.80702,14.441771 L239.717971,12.1760138 C239.689277,11.8777571 239.569556,11.78828 239.243042,11.78828 L234.642166,11.78828 L233.840724,17.6639381 L240.667829,17.6639381 L240.1929,20.9735939 L233.365795,20.9735939 L232.565341,26.9685547 L237.818255,26.9685547 C238.144768,26.9685547 238.233818,26.938729 238.322867,26.6404723 L239.153993,24.0158128 L242.270715,24.0158128 L241.439589,30.159902 L225.322673,30.159902 Z" id="Fill-20" fill="#FFFFFF"></path>
                <path d="M247.020203,30.5176113 C245.476684,30.5176113 244.76429,29.8614464 244.76429,28.519291 C244.76429,26.8192275 245.743831,25.8648059 247.673231,25.8648059 C249.21675,25.8648059 249.899461,26.5507964 249.899461,27.8929518 C249.899461,29.5631896 248.919919,30.5176113 247.020203,30.5176113" id="Fill-22" fill="#FFFFFF"></path>
                <path d="M140.767787,15.6840104 C141.537568,17.6455456 142.65464,18.6258162 144.118016,18.6258162 C144.676057,18.6258162 145.152965,18.4220074 145.54775,18.0143898 C145.942535,17.6067723 146.140422,17.111666 146.140422,16.5290712 C146.140422,15.3638815 145.427039,14.7812866 144.003241,14.7812866 C143.136496,14.7812866 142.058011,15.0825259 140.767787,15.6840104 M159.996477,19.7910059 C161.213483,20.606241 162.054503,21.4562728 162.517559,22.3391128 C162.981604,23.222947 163.214122,24.3931076 163.214122,25.8495948 C163.214122,29.8879912 161.397518,33.4223338 157.764311,36.4516282 C154.130114,39.4809227 149.898298,40.9950728 145.067874,40.9950728 C140.563963,40.9950728 136.955492,39.8298831 134.240481,37.4995036 C131.525469,35.1701184 130.167964,32.0632772 130.167964,28.17898 C130.167964,25.38332 130.820002,22.9515333 132.124078,20.8826256 C133.429143,18.8147121 135.578197,16.8004848 138.573219,14.8389496 C138.284304,13.5604223 138.139846,12.4459362 138.139846,11.4964855 C138.139846,8.35683608 139.241088,5.65860663 141.444561,3.400803 C143.647044,1.14299936 146.274985,0.013600446 149.328383,0.013600446 C151.222163,0.013600446 152.753809,0.45999139 153.923322,1.34979071 C155.092835,2.24058422 155.676602,3.42068678 155.676602,4.89208677 C155.676602,6.01353217 155.302595,6.97690149 154.554582,7.78020635 C153.805579,8.58351121 152.916077,8.98516364 151.886074,8.98516364 C151.128166,8.98516364 150.749213,8.70380811 150.749213,8.14010284 C150.749213,7.94623595 150.874871,7.62610703 151.126188,7.1787219 C151.434892,6.61601082 151.590233,6.1308465 151.590233,5.72223474 C151.590233,5.02331975 151.252835,4.44072488 150.580019,3.97544435 C149.907203,3.50916962 149.07113,3.27652935 148.0718,3.27652935 C146.033563,3.27652935 144.211023,4.17925313 142.606158,5.98470069 C141.000304,7.79114243 140.197872,9.85905594 140.197872,12.1884412 C140.197872,12.597053 140.223597,13.1786536 140.277027,13.9362258 C141.514811,13.3347413 142.868359,13.033502 144.33866,13.033502 C145.808961,13.033502 146.988368,13.3834566 147.877871,14.0823716 C148.767373,14.7812866 149.212619,15.7227837 149.212619,16.9068631 C149.212619,18.0531632 148.810908,18.9797475 148.009466,19.6886044 C147.207033,20.3974613 146.148337,20.7523868 144.834367,20.7523868 C142.417176,20.7523868 140.522407,19.3734464 139.15006,16.6155656 C136.176806,18.9041891 134.689684,21.8907334 134.689684,25.5751986 C134.689684,29.0846864 135.938352,32.114975 138.435687,34.6650703 C140.932033,37.2151655 143.916171,38.4897161 147.386121,38.4897161 C150.779885,38.4897161 153.754128,37.3414276 156.308851,35.0448505 C158.863574,32.7472793 160.140935,30.0679395 160.140935,27.0058368 C160.140935,25.609001 159.65809,24.3931076 158.691412,23.3561683 C157.724733,22.319229 156.594798,21.8002622 155.300616,21.8002622 C154.063822,21.8002622 153.005126,22.2347229 152.125518,23.1026501 C151.245909,23.969583 150.8066,25.0184526 150.8066,26.2462763 C150.8066,27.006831 151.024276,27.6500714 151.459627,28.1759975 C151.89399,28.7029177 152.430264,28.9653837 153.06845,28.9653837 C153.62847,28.9653837 154.082621,28.6551967 154.430902,28.0338284 C154.647589,27.6838738 154.874169,27.5098907 155.111634,27.5098907 C155.604373,27.5098907 155.831943,27.7991998 155.793355,28.3758295 C155.753778,29.0687794 155.449032,29.6513742 154.880106,30.1226199 C154.310191,30.5938656 153.618576,30.8294884 152.807239,30.8294884 C151.531856,30.8294884 150.430614,30.2568354 149.502524,29.1115295 C148.575423,27.9662235 148.111378,26.597225 148.111378,25.004534 C148.111378,21.7614889 150.569135,19.0920909 155.484651,16.9943517 L159.635333,15.2147531 C166.03995,12.4727793 169.242752,9.31026351 169.242752,5.73018826 C169.242752,4.58289394 168.867756,3.60560597 168.117764,2.79733016 C167.366783,1.99104273 166.455513,1.58640774 165.383954,1.58640774 C164.604279,1.58640774 163.916621,1.89659476 163.32296,2.51696881 C162.728309,3.13634867 162.431478,3.84023462 162.431478,4.62663826 C162.431478,5.35438474 162.875735,5.80773501 163.764248,5.98470069 C164.826902,6.17757339 165.359218,6.55238271 165.359218,7.11211122 C165.359218,7.74739811 165.094049,8.32601622 164.565691,8.84597716 C164.036343,9.3659381 163.455544,9.62542148 162.821316,9.62542148 C161.878384,9.62542148 161.123444,9.27646108 160.556498,8.57754608 C159.989551,7.87763689 159.706573,6.96497122 159.706573,5.83954907 C159.706573,4.30551515 160.286382,2.96037719 161.445011,1.80512936 C162.604629,0.649881524 163.957188,0.0722576078 165.503676,0.0722576078 C167.300491,0.0722576078 168.774749,0.708538686 169.924474,1.98010665 C171.073208,3.25167462 171.64906,4.86822623 171.64906,6.82976149 C171.64906,9.39278121 170.663582,11.761934 168.692626,13.9362258 C167.513219,15.256509 165.261264,16.8392582 161.93775,18.6844733 C161.513282,18.9360032 160.865202,19.3058416 159.996477,19.7910059" id="Fill-24" fill="#11A2CD"></path>
            </g>
        </g>
    </g>
</svg>