<?xml version="1.0" encoding="UTF-8" standalone="no"?>
<svg width="28px" height="21px" viewBox="0 0 28 21" version="1.1" xmlns="http://www.w3.org/2000/svg" xmlns:xlink="http://www.w3.org/1999/xlink">
    <!-- Generator: Sketch 40 (33762) - http://www.bohemiancoding.com/sketch -->
    <title>Shape</title>
    <desc>Created with Sketch.</desc>
    <defs></defs>
    <g id="Welcome" stroke="none" stroke-width="1" fill="none" fill-rule="evenodd">
        <g id="Desktop-HD" transform="translate(-1337.000000, -772.000000)" fill="#FFFFFF">
            <g id="Group" transform="translate(824.000000, 390.000000)">
                <g id="Group-3">
                    <path d="M535.826989,393.792178 L528.671447,400.765378 C528.150523,401.273028 528.150523,402.096253 528.671114,402.603578 C529.192038,403.111228 530.037123,403.111228 530.558047,402.603578 L539.990383,393.411278 C540.052413,393.350828 540.107774,393.284203 540.156465,393.213353 C540.178809,393.180528 540.194484,393.145103 540.213827,393.110978 C540.235838,393.070678 540.261183,393.032328 540.278859,392.989753 C540.297868,392.945878 540.30854,392.900378 540.32188,392.854878 C540.332886,392.818803 540.347226,392.784353 540.354896,392.747303 C540.372238,392.662803 540.381243,392.577653 540.381243,392.492178 C540.380576,392.405078 540.371905,392.320578 540.354896,392.237703 C540.346892,392.198703 540.331885,392.162628 540.320213,392.124278 C540.307206,392.081053 540.297201,392.037178 540.279192,391.995253 C540.259849,391.950078 540.233837,391.909128 540.209825,391.866553 C540.191816,391.834703 540.177475,391.802203 540.156798,391.771653 C540.108108,391.699828 540.05208,391.632878 539.989716,391.572103 L530.557714,382.380778 C530.036789,381.873128 529.192038,381.873128 528.671114,382.380453 C528.150189,382.888103 528.150189,383.711328 528.671114,384.219303 L535.826655,391.192178 L515.035364,391.192178 C514.298666,391.192178 513.701371,391.774253 513.701371,392.492178 C513.701371,393.210103 514.298666,393.792178 515.035364,393.792178 L535.826989,393.792178 Z" id="Shape"></path>
                </g>
            </g>
        </g>
    </g>
</svg>